<svg xmlns="http://www.w3.org/2000/svg" xmlns:xlink="http://www.w3.org/1999/xlink" width="500" zoomAndPan="magnify" viewBox="0 0 375 374.999991" height="500" preserveAspectRatio="xMidYMid meet" version="1.0"><defs><g/><clipPath id="0dabc83992"><path d="M 0.5 24.523438 L 129.109375 24.523438 L 129.109375 48 L 0.5 48 Z M 0.5 24.523438 " clip-rule="nonzero"/></clipPath><clipPath id="d2ff81e912"><path d="M 0.5 0.679688 L 129.109375 0.679688 L 129.109375 24 L 0.5 24 Z M 0.5 0.679688 " clip-rule="nonzero"/></clipPath><clipPath id="1977de37bc"><path d="M 0.5 48.476562 L 129.109375 48.476562 L 129.109375 71.960938 L 0.5 71.960938 Z M 0.5 48.476562 " clip-rule="nonzero"/></clipPath><clipPath id="131c17581a"><rect x="0" width="130" y="0" height="72"/></clipPath></defs><g transform="matrix(1, 0, 0, 1, 37, 151)"><g clip-path="url(#131c17581a)"><g clip-path="url(#0dabc83992)"><path fill="#ff6e61" d="M 128.386719 30.222656 C 125.886719 36.179688 120.914062 40.457031 115.113281 43.085938 C 105.554688 47.414062 95.011719 48.472656 84.652344 47.003906 C 78.105469 46.074219 71.6875 44.140625 65.65625 41.382812 C 59.804688 38.703125 54.160156 35.457031 47.949219 33.625 C 31.789062 28.832031 12.40625 33.730469 0.5 45.300781 C 8.464844 33.316406 23.101562 25.6875 37.847656 24.785156 C 41.945312 24.527344 46.042969 24.785156 50.011719 25.636719 C 58.386719 27.207031 65.628906 31.746094 73.078125 34.8125 C 89.109375 41.101562 119.007812 45.738281 129.109375 28.238281 C 128.902344 28.910156 128.671875 29.578125 128.386719 30.222656 Z M 128.386719 30.222656 " fill-opacity="1" fill-rule="nonzero"/></g><g clip-path="url(#d2ff81e912)"><path fill="#0b1c2d" d="M 128.386719 6.269531 C 125.886719 12.222656 120.914062 16.503906 115.113281 19.132812 C 105.554688 23.460938 95.011719 24.519531 84.652344 23.050781 C 78.105469 22.121094 71.6875 20.1875 65.65625 17.429688 C 59.804688 14.75 54.160156 11.503906 47.949219 9.671875 C 31.789062 4.878906 12.40625 9.777344 0.5 21.347656 C 8.464844 9.363281 23.101562 1.734375 37.847656 0.832031 C 41.945312 0.574219 46.042969 0.832031 50.011719 1.683594 C 58.386719 3.253906 65.628906 7.792969 73.078125 10.859375 C 89.109375 17.148438 119.007812 21.785156 129.109375 4.285156 C 128.902344 4.957031 128.671875 5.625 128.386719 6.269531 Z M 128.386719 6.269531 " fill-opacity="1" fill-rule="nonzero"/></g><g clip-path="url(#1977de37bc)"><path fill="#0b1c2d" d="M 128.386719 54.179688 C 125.886719 60.132812 120.914062 64.410156 115.113281 67.039062 C 105.554688 71.367188 95.011719 72.425781 84.652344 70.957031 C 78.105469 70.027344 71.6875 68.09375 65.65625 65.335938 C 59.804688 62.65625 54.160156 59.410156 47.949219 57.578125 C 31.789062 52.785156 12.40625 57.683594 0.5 69.253906 C 8.464844 57.269531 23.101562 49.640625 37.847656 48.738281 C 41.945312 48.480469 46.042969 48.738281 50.011719 49.589844 C 58.386719 51.164062 65.628906 55.699219 73.078125 58.765625 C 89.109375 65.054688 119.007812 69.695312 129.109375 52.191406 C 128.902344 52.863281 128.671875 53.535156 128.386719 54.179688 Z M 128.386719 54.179688 " fill-opacity="1" fill-rule="nonzero"/></g></g></g><g fill="#0b1c2d" fill-opacity="1"><g transform="translate(187.499992, 186.415697)"><g><path d="M 22.171875 -4.734375 L 22.171875 0 L 2.890625 0 L 2.890625 -27.75 L 21.8125 -27.75 L 21.8125 -23.03125 L 8.28125 -23.03125 L 8.28125 -16.34375 L 19.984375 -16.34375 L 19.984375 -11.96875 L 8.28125 -11.96875 L 8.28125 -4.734375 Z M 22.171875 -4.734375 "/></g></g></g><g fill="#0b1c2d" fill-opacity="1"><g transform="translate(210.878039, 186.415697)"><g><path d="M 21.421875 0 L 16.1875 0 L 16.1875 -11.5 C 16.1875 -13.132812 15.898438 -14.328125 15.328125 -15.078125 C 14.753906 -15.835938 13.957031 -16.21875 12.9375 -16.21875 C 12.238281 -16.21875 11.53125 -16.035156 10.8125 -15.671875 C 10.09375 -15.304688 9.445312 -14.804688 8.875 -14.171875 C 8.300781 -13.535156 7.882812 -12.800781 7.625 -11.96875 L 7.625 0 L 2.390625 0 L 2.390625 -20.484375 L 7.109375 -20.484375 L 7.109375 -16.6875 C 7.628906 -17.570312 8.296875 -18.320312 9.109375 -18.9375 C 9.921875 -19.550781 10.851562 -20.019531 11.90625 -20.34375 C 12.957031 -20.675781 14.070312 -20.84375 15.25 -20.84375 C 16.519531 -20.84375 17.566406 -20.613281 18.390625 -20.15625 C 19.210938 -19.695312 19.835938 -19.082031 20.265625 -18.3125 C 20.703125 -17.539062 21.003906 -16.671875 21.171875 -15.703125 C 21.335938 -14.742188 21.421875 -13.769531 21.421875 -12.78125 Z M 21.421875 0 "/></g></g></g><g fill="#0b1c2d" fill-opacity="1"><g transform="translate(234.490655, 186.415697)"><g><path d="M 2.34375 -28.53125 L 7.578125 -28.53125 L 7.578125 -6.5625 C 7.578125 -5.625 7.734375 -4.992188 8.046875 -4.671875 C 8.359375 -4.347656 8.789062 -4.1875 9.34375 -4.1875 C 9.757812 -4.1875 10.1875 -4.238281 10.625 -4.34375 C 11.070312 -4.445312 11.46875 -4.578125 11.8125 -4.734375 L 12.515625 -0.75 C 11.804688 -0.40625 10.984375 -0.144531 10.046875 0.03125 C 9.109375 0.21875 8.257812 0.3125 7.5 0.3125 C 5.863281 0.3125 4.59375 -0.125 3.6875 -1 C 2.789062 -1.875 2.34375 -3.117188 2.34375 -4.734375 Z M 2.34375 -28.53125 "/></g></g></g><g fill="#0b1c2d" fill-opacity="1"><g transform="translate(246.883369, 186.415697)"><g><path d="M 0.984375 -6.0625 C 0.984375 -7.382812 1.351562 -8.546875 2.09375 -9.546875 C 2.832031 -10.554688 3.863281 -11.332031 5.1875 -11.875 C 6.519531 -12.425781 8.046875 -12.703125 9.765625 -12.703125 C 10.628906 -12.703125 11.503906 -12.632812 12.390625 -12.5 C 13.273438 -12.375 14.046875 -12.171875 14.703125 -11.890625 L 14.703125 -12.984375 C 14.703125 -14.285156 14.316406 -15.285156 13.546875 -15.984375 C 12.773438 -16.691406 11.632812 -17.046875 10.125 -17.046875 C 9 -17.046875 7.925781 -16.847656 6.90625 -16.453125 C 5.894531 -16.066406 4.832031 -15.492188 3.71875 -14.734375 L 2.03125 -18.171875 C 3.382812 -19.054688 4.769531 -19.722656 6.1875 -20.171875 C 7.613281 -20.617188 9.109375 -20.84375 10.671875 -20.84375 C 13.585938 -20.84375 15.859375 -20.109375 17.484375 -18.640625 C 19.117188 -17.179688 19.9375 -15.097656 19.9375 -12.390625 L 19.9375 -5.859375 C 19.9375 -5.316406 20.035156 -4.925781 20.234375 -4.6875 C 20.429688 -4.457031 20.75 -4.316406 21.1875 -4.265625 L 21.1875 0 C 20.71875 0.0820312 20.289062 0.148438 19.90625 0.203125 C 19.53125 0.253906 19.210938 0.28125 18.953125 0.28125 C 17.910156 0.28125 17.125 0.046875 16.59375 -0.421875 C 16.0625 -0.898438 15.726562 -1.476562 15.59375 -2.15625 L 15.484375 -3.203125 C 14.597656 -2.054688 13.488281 -1.171875 12.15625 -0.546875 C 10.832031 0.078125 9.476562 0.390625 8.09375 0.390625 C 6.738281 0.390625 5.519531 0.109375 4.4375 -0.453125 C 3.351562 -1.015625 2.503906 -1.78125 1.890625 -2.75 C 1.285156 -3.726562 0.984375 -4.832031 0.984375 -6.0625 Z M 13.71875 -5 C 14.007812 -5.3125 14.242188 -5.625 14.421875 -5.9375 C 14.609375 -6.25 14.703125 -6.535156 14.703125 -6.796875 L 14.703125 -8.875 C 14.078125 -9.132812 13.398438 -9.332031 12.671875 -9.46875 C 11.941406 -9.613281 11.25 -9.6875 10.59375 -9.6875 C 9.238281 -9.6875 8.125 -9.394531 7.25 -8.8125 C 6.375 -8.226562 5.9375 -7.453125 5.9375 -6.484375 C 5.9375 -5.960938 6.078125 -5.46875 6.359375 -5 C 6.648438 -4.53125 7.066406 -4.148438 7.609375 -3.859375 C 8.160156 -3.578125 8.816406 -3.4375 9.578125 -3.4375 C 10.359375 -3.4375 11.125 -3.585938 11.875 -3.890625 C 12.632812 -4.191406 13.25 -4.5625 13.71875 -5 Z M 13.71875 -5 "/></g></g></g><g fill="#0b1c2d" fill-opacity="1"><g transform="translate(269.323172, 186.415697)"><g><path d="M 11.921875 0.390625 C 10.253906 0.390625 8.753906 0.109375 7.421875 -0.453125 C 6.097656 -1.015625 4.96875 -1.796875 4.03125 -2.796875 C 3.09375 -3.796875 2.367188 -4.929688 1.859375 -6.203125 C 1.347656 -7.484375 1.09375 -8.832031 1.09375 -10.25 C 1.09375 -12.175781 1.53125 -13.9375 2.40625 -15.53125 C 3.28125 -17.132812 4.523438 -18.421875 6.140625 -19.390625 C 7.753906 -20.359375 9.671875 -20.84375 11.890625 -20.84375 C 14.097656 -20.84375 16 -20.359375 17.59375 -19.390625 C 19.1875 -18.421875 20.375 -17.15625 21.15625 -15.59375 L 16.03125 -14.03125 C 15.582031 -14.789062 14.992188 -15.367188 14.265625 -15.765625 C 13.535156 -16.171875 12.726562 -16.375 11.84375 -16.375 C 10.851562 -16.375 9.945312 -16.117188 9.125 -15.609375 C 8.300781 -15.109375 7.65625 -14.394531 7.1875 -13.46875 C 6.71875 -12.539062 6.484375 -11.46875 6.484375 -10.25 C 6.484375 -9.039062 6.722656 -7.972656 7.203125 -7.046875 C 7.691406 -6.128906 8.335938 -5.398438 9.140625 -4.859375 C 9.953125 -4.328125 10.851562 -4.0625 11.84375 -4.0625 C 12.46875 -4.0625 13.0625 -4.164062 13.625 -4.375 C 14.1875 -4.582031 14.6875 -4.867188 15.125 -5.234375 C 15.570312 -5.597656 15.898438 -6.015625 16.109375 -6.484375 L 21.234375 -4.921875 C 20.765625 -3.910156 20.078125 -3 19.171875 -2.1875 C 18.273438 -1.382812 17.21875 -0.753906 16 -0.296875 C 14.789062 0.160156 13.429688 0.390625 11.921875 0.390625 Z M 11.921875 0.390625 "/></g></g></g><g fill="#0b1c2d" fill-opacity="1"><g transform="translate(291.176546, 186.415697)"><g><path d="M 11.890625 0.390625 C 10.242188 0.390625 8.753906 0.109375 7.421875 -0.453125 C 6.097656 -1.015625 4.96875 -1.78125 4.03125 -2.75 C 3.09375 -3.726562 2.367188 -4.847656 1.859375 -6.109375 C 1.347656 -7.378906 1.09375 -8.71875 1.09375 -10.125 C 1.09375 -12.082031 1.53125 -13.867188 2.40625 -15.484375 C 3.28125 -17.097656 4.53125 -18.394531 6.15625 -19.375 C 7.78125 -20.351562 9.703125 -20.84375 11.921875 -20.84375 C 14.160156 -20.84375 16.078125 -20.351562 17.671875 -19.375 C 19.265625 -18.394531 20.484375 -17.101562 21.328125 -15.5 C 22.171875 -13.894531 22.59375 -12.171875 22.59375 -10.328125 C 22.59375 -10.015625 22.578125 -9.691406 22.546875 -9.359375 C 22.523438 -9.035156 22.503906 -8.769531 22.484375 -8.5625 L 6.640625 -8.5625 C 6.742188 -7.519531 7.050781 -6.609375 7.5625 -5.828125 C 8.070312 -5.046875 8.722656 -4.453125 9.515625 -4.046875 C 10.316406 -3.640625 11.171875 -3.4375 12.078125 -3.4375 C 13.117188 -3.4375 14.101562 -3.691406 15.03125 -4.203125 C 15.957031 -4.710938 16.585938 -5.382812 16.921875 -6.21875 L 21.421875 -4.96875 C 20.929688 -3.925781 20.222656 -3 19.296875 -2.1875 C 18.367188 -1.382812 17.28125 -0.753906 16.03125 -0.296875 C 14.78125 0.160156 13.398438 0.390625 11.890625 0.390625 Z M 6.53125 -11.890625 L 17.234375 -11.890625 C 17.128906 -12.929688 16.835938 -13.832031 16.359375 -14.59375 C 15.878906 -15.363281 15.25 -15.960938 14.46875 -16.390625 C 13.6875 -16.828125 12.8125 -17.046875 11.84375 -17.046875 C 10.90625 -17.046875 10.050781 -16.828125 9.28125 -16.390625 C 8.507812 -15.960938 7.882812 -15.363281 7.40625 -14.59375 C 6.925781 -13.832031 6.632812 -12.929688 6.53125 -11.890625 Z M 6.53125 -11.890625 "/></g></g></g><g fill="#ff6e61" fill-opacity="1"><g transform="translate(187.499992, 217.683545)"><g><path d="M 8.046875 -15.921875 L 9.53125 -15.921875 L 11.796875 -10.234375 L 14.078125 -15.921875 L 15.59375 -15.921875 L 12.78125 -9.078125 L 15.859375 -1.828125 L 21.671875 -16.046875 L 23.390625 -16.046875 L 16.578125 0 L 15.1875 0 L 11.8125 -7.9375 L 8.421875 0 L 7.046875 0 L 0.265625 -16.046875 L 1.96875 -16.046875 L 7.796875 -1.828125 L 10.84375 -9.078125 Z M 8.046875 -15.921875 "/></g></g></g><g fill="#ff6e61" fill-opacity="1"><g transform="translate(209.607298, 217.683545)"><g><path d="M 6.78125 0.21875 C 5.9375 0.21875 5.148438 0.0546875 4.421875 -0.265625 C 3.703125 -0.585938 3.078125 -1.03125 2.546875 -1.59375 C 2.023438 -2.15625 1.613281 -2.804688 1.3125 -3.546875 C 1.019531 -4.285156 0.875 -5.078125 0.875 -5.921875 C 0.875 -7.015625 1.125 -8.019531 1.625 -8.9375 C 2.132812 -9.863281 2.832031 -10.597656 3.71875 -11.140625 C 4.613281 -11.691406 5.625 -11.96875 6.75 -11.96875 C 7.914062 -11.96875 8.929688 -11.6875 9.796875 -11.125 C 10.660156 -10.570312 11.335938 -9.835938 11.828125 -8.921875 C 12.328125 -8.015625 12.578125 -7.019531 12.578125 -5.9375 C 12.578125 -5.820312 12.578125 -5.707031 12.578125 -5.59375 C 12.578125 -5.476562 12.570312 -5.390625 12.5625 -5.328125 L 2.484375 -5.328125 C 2.554688 -4.484375 2.789062 -3.734375 3.1875 -3.078125 C 3.59375 -2.421875 4.113281 -1.898438 4.75 -1.515625 C 5.394531 -1.140625 6.09375 -0.953125 6.84375 -0.953125 C 7.613281 -0.953125 8.335938 -1.144531 9.015625 -1.53125 C 9.703125 -1.925781 10.179688 -2.441406 10.453125 -3.078125 L 11.796875 -2.71875 C 11.554688 -2.15625 11.1875 -1.644531 10.6875 -1.1875 C 10.1875 -0.738281 9.601562 -0.390625 8.9375 -0.140625 C 8.269531 0.0976562 7.550781 0.21875 6.78125 0.21875 Z M 2.4375 -6.4375 L 11.140625 -6.4375 C 11.078125 -7.300781 10.84375 -8.054688 10.4375 -8.703125 C 10.039062 -9.347656 9.523438 -9.851562 8.890625 -10.21875 C 8.253906 -10.59375 7.550781 -10.78125 6.78125 -10.78125 C 6.007812 -10.78125 5.304688 -10.59375 4.671875 -10.21875 C 4.046875 -9.851562 3.53125 -9.34375 3.125 -8.6875 C 2.726562 -8.03125 2.5 -7.28125 2.4375 -6.4375 Z M 2.4375 -6.4375 "/></g></g></g><g fill="#ff6e61" fill-opacity="1"><g transform="translate(222.862966, 217.683545)"><g><path d="M 7.453125 0.21875 C 6.535156 0.21875 5.6875 -0.015625 4.90625 -0.484375 C 4.125 -0.960938 3.515625 -1.5625 3.078125 -2.28125 L 3.078125 0 L 1.6875 0 L 1.6875 -16.5 L 3.234375 -16.5 L 3.234375 -9.3125 C 3.753906 -10.101562 4.382812 -10.742188 5.125 -11.234375 C 5.863281 -11.722656 6.722656 -11.96875 7.703125 -11.96875 C 8.535156 -11.96875 9.273438 -11.796875 9.921875 -11.453125 C 10.578125 -11.109375 11.140625 -10.644531 11.609375 -10.0625 C 12.078125 -9.488281 12.429688 -8.832031 12.671875 -8.09375 C 12.910156 -7.363281 13.03125 -6.617188 13.03125 -5.859375 C 13.03125 -5.023438 12.890625 -4.242188 12.609375 -3.515625 C 12.335938 -2.796875 11.945312 -2.15625 11.4375 -1.59375 C 10.925781 -1.03125 10.332031 -0.585938 9.65625 -0.265625 C 8.988281 0.0546875 8.253906 0.21875 7.453125 0.21875 Z M 7.09375 -1.125 C 7.726562 -1.125 8.316406 -1.25 8.859375 -1.5 C 9.398438 -1.757812 9.863281 -2.113281 10.25 -2.5625 C 10.644531 -3.019531 10.945312 -3.53125 11.15625 -4.09375 C 11.375 -4.664062 11.484375 -5.253906 11.484375 -5.859375 C 11.484375 -6.679688 11.304688 -7.457031 10.953125 -8.1875 C 10.597656 -8.914062 10.109375 -9.503906 9.484375 -9.953125 C 8.859375 -10.398438 8.125 -10.625 7.28125 -10.625 C 6.675781 -10.625 6.113281 -10.488281 5.59375 -10.21875 C 5.070312 -9.945312 4.609375 -9.585938 4.203125 -9.140625 C 3.804688 -8.691406 3.484375 -8.207031 3.234375 -7.6875 L 3.234375 -4.015625 C 3.296875 -3.609375 3.453125 -3.226562 3.703125 -2.875 C 3.960938 -2.519531 4.28125 -2.210938 4.65625 -1.953125 C 5.039062 -1.703125 5.441406 -1.5 5.859375 -1.34375 C 6.285156 -1.195312 6.695312 -1.125 7.09375 -1.125 Z M 7.09375 -1.125 "/></g></g></g><g fill="#ff6e61" fill-opacity="1"><g transform="translate(236.796089, 217.683545)"><g/></g></g><g fill="#ff6e61" fill-opacity="1"><g transform="translate(242.554516, 217.683545)"><g><path d="M 2.015625 0 L 2.015625 -16.046875 L 7.453125 -16.046875 C 9.160156 -16.046875 10.582031 -15.6875 11.71875 -14.96875 C 12.851562 -14.25 13.707031 -13.28125 14.28125 -12.0625 C 14.851562 -10.851562 15.140625 -9.515625 15.140625 -8.046875 C 15.140625 -6.421875 14.828125 -5.003906 14.203125 -3.796875 C 13.578125 -2.585938 12.6875 -1.648438 11.53125 -0.984375 C 10.382812 -0.328125 9.023438 0 7.453125 0 Z M 13.5625 -8.046875 C 13.5625 -9.328125 13.320312 -10.460938 12.84375 -11.453125 C 12.375 -12.453125 11.6875 -13.234375 10.78125 -13.796875 C 9.875 -14.359375 8.765625 -14.640625 7.453125 -14.640625 L 3.59375 -14.640625 L 3.59375 -1.40625 L 7.453125 -1.40625 C 8.773438 -1.40625 9.890625 -1.695312 10.796875 -2.28125 C 11.703125 -2.863281 12.390625 -3.65625 12.859375 -4.65625 C 13.328125 -5.664062 13.5625 -6.796875 13.5625 -8.046875 Z M 13.5625 -8.046875 "/></g></g></g><g fill="#ff6e61" fill-opacity="1"><g transform="translate(258.700686, 217.683545)"><g><path d="M 6.78125 0.21875 C 5.9375 0.21875 5.148438 0.0546875 4.421875 -0.265625 C 3.703125 -0.585938 3.078125 -1.03125 2.546875 -1.59375 C 2.023438 -2.15625 1.613281 -2.804688 1.3125 -3.546875 C 1.019531 -4.285156 0.875 -5.078125 0.875 -5.921875 C 0.875 -7.015625 1.125 -8.019531 1.625 -8.9375 C 2.132812 -9.863281 2.832031 -10.597656 3.71875 -11.140625 C 4.613281 -11.691406 5.625 -11.96875 6.75 -11.96875 C 7.914062 -11.96875 8.929688 -11.6875 9.796875 -11.125 C 10.660156 -10.570312 11.335938 -9.835938 11.828125 -8.921875 C 12.328125 -8.015625 12.578125 -7.019531 12.578125 -5.9375 C 12.578125 -5.820312 12.578125 -5.707031 12.578125 -5.59375 C 12.578125 -5.476562 12.570312 -5.390625 12.5625 -5.328125 L 2.484375 -5.328125 C 2.554688 -4.484375 2.789062 -3.734375 3.1875 -3.078125 C 3.59375 -2.421875 4.113281 -1.898438 4.75 -1.515625 C 5.394531 -1.140625 6.09375 -0.953125 6.84375 -0.953125 C 7.613281 -0.953125 8.335938 -1.144531 9.015625 -1.53125 C 9.703125 -1.925781 10.179688 -2.441406 10.453125 -3.078125 L 11.796875 -2.71875 C 11.554688 -2.15625 11.1875 -1.644531 10.6875 -1.1875 C 10.1875 -0.738281 9.601562 -0.390625 8.9375 -0.140625 C 8.269531 0.0976562 7.550781 0.21875 6.78125 0.21875 Z M 2.4375 -6.4375 L 11.140625 -6.4375 C 11.078125 -7.300781 10.84375 -8.054688 10.4375 -8.703125 C 10.039062 -9.347656 9.523438 -9.851562 8.890625 -10.21875 C 8.253906 -10.59375 7.550781 -10.78125 6.78125 -10.78125 C 6.007812 -10.78125 5.304688 -10.59375 4.671875 -10.21875 C 4.046875 -9.851562 3.53125 -9.34375 3.125 -8.6875 C 2.726562 -8.03125 2.5 -7.28125 2.4375 -6.4375 Z M 2.4375 -6.4375 "/></g></g></g><g fill="#ff6e61" fill-opacity="1"><g transform="translate(271.956354, 217.683545)"><g><path d="M 5.5625 0.21875 C 4.59375 0.21875 3.691406 0.0625 2.859375 -0.25 C 2.035156 -0.5625 1.320312 -1.039062 0.71875 -1.6875 L 1.359375 -2.78125 C 2.015625 -2.164062 2.675781 -1.71875 3.34375 -1.4375 C 4.019531 -1.15625 4.734375 -1.015625 5.484375 -1.015625 C 6.410156 -1.015625 7.15625 -1.195312 7.71875 -1.5625 C 8.289062 -1.9375 8.578125 -2.46875 8.578125 -3.15625 C 8.578125 -3.625 8.4375 -3.984375 8.15625 -4.234375 C 7.882812 -4.484375 7.488281 -4.6875 6.96875 -4.84375 C 6.445312 -5 5.828125 -5.171875 5.109375 -5.359375 C 4.296875 -5.578125 3.613281 -5.8125 3.0625 -6.0625 C 2.507812 -6.3125 2.09375 -6.628906 1.8125 -7.015625 C 1.539062 -7.398438 1.40625 -7.898438 1.40625 -8.515625 C 1.40625 -9.285156 1.59375 -9.921875 1.96875 -10.421875 C 2.351562 -10.929688 2.878906 -11.316406 3.546875 -11.578125 C 4.222656 -11.835938 4.976562 -11.96875 5.8125 -11.96875 C 6.707031 -11.96875 7.5 -11.820312 8.1875 -11.53125 C 8.882812 -11.25 9.453125 -10.851562 9.890625 -10.34375 L 9.15625 -9.3125 C 8.726562 -9.789062 8.222656 -10.144531 7.640625 -10.375 C 7.066406 -10.613281 6.425781 -10.734375 5.71875 -10.734375 C 5.238281 -10.734375 4.78125 -10.664062 4.34375 -10.53125 C 3.90625 -10.40625 3.546875 -10.195312 3.265625 -9.90625 C 2.984375 -9.613281 2.84375 -9.210938 2.84375 -8.703125 C 2.84375 -8.273438 2.945312 -7.941406 3.15625 -7.703125 C 3.375 -7.472656 3.691406 -7.28125 4.109375 -7.125 C 4.535156 -6.96875 5.054688 -6.800781 5.671875 -6.625 C 6.554688 -6.382812 7.332031 -6.140625 8 -5.890625 C 8.664062 -5.640625 9.175781 -5.316406 9.53125 -4.921875 C 9.894531 -4.535156 10.078125 -3.988281 10.078125 -3.28125 C 10.078125 -2.175781 9.660156 -1.316406 8.828125 -0.703125 C 8.003906 -0.0859375 6.914062 0.21875 5.5625 0.21875 Z M 5.5625 0.21875 "/></g></g></g><g fill="#ff6e61" fill-opacity="1"><g transform="translate(282.863489, 217.683545)"><g><path d="M 1.6875 0 L 1.6875 -11.765625 L 3.234375 -11.765625 L 3.234375 0 Z M 1.6875 -14.234375 L 1.6875 -16.5 L 3.234375 -16.5 L 3.234375 -14.234375 Z M 1.6875 -14.234375 "/></g></g></g><g fill="#ff6e61" fill-opacity="1"><g transform="translate(287.786382, 217.683545)"><g><path d="M 6.421875 0.15625 C 5.617188 0.15625 4.878906 -0.0078125 4.203125 -0.34375 C 3.523438 -0.675781 2.941406 -1.125 2.453125 -1.6875 C 1.960938 -2.25 1.582031 -2.890625 1.3125 -3.609375 C 1.039062 -4.335938 0.90625 -5.085938 0.90625 -5.859375 C 0.90625 -6.679688 1.035156 -7.457031 1.296875 -8.1875 C 1.554688 -8.914062 1.929688 -9.566406 2.421875 -10.140625 C 2.910156 -10.710938 3.488281 -11.160156 4.15625 -11.484375 C 4.820312 -11.804688 5.5625 -11.96875 6.375 -11.96875 C 7.382812 -11.96875 8.257812 -11.710938 9 -11.203125 C 9.75 -10.691406 10.378906 -10.0625 10.890625 -9.3125 L 10.890625 -11.765625 L 12.265625 -11.765625 L 12.265625 0.046875 C 12.265625 1.128906 12.003906 2.039062 11.484375 2.78125 C 10.960938 3.53125 10.257812 4.09375 9.375 4.46875 C 8.5 4.84375 7.539062 5.03125 6.5 5.03125 C 5.164062 5.03125 4.082031 4.789062 3.25 4.3125 C 2.425781 3.832031 1.75 3.1875 1.21875 2.375 L 2.171875 1.625 C 2.640625 2.363281 3.257812 2.910156 4.03125 3.265625 C 4.8125 3.628906 5.632812 3.8125 6.5 3.8125 C 7.269531 3.8125 7.972656 3.671875 8.609375 3.390625 C 9.253906 3.117188 9.769531 2.703125 10.15625 2.140625 C 10.539062 1.585938 10.734375 0.890625 10.734375 0.046875 L 10.734375 -2.28125 C 10.273438 -1.539062 9.65625 -0.945312 8.875 -0.5 C 8.09375 -0.0625 7.273438 0.15625 6.421875 0.15625 Z M 6.84375 -1.125 C 7.3125 -1.125 7.757812 -1.207031 8.1875 -1.375 C 8.613281 -1.539062 9.007812 -1.765625 9.375 -2.046875 C 9.738281 -2.328125 10.039062 -2.640625 10.28125 -2.984375 C 10.519531 -3.328125 10.671875 -3.679688 10.734375 -4.046875 L 10.734375 -7.6875 C 10.503906 -8.257812 10.175781 -8.765625 9.75 -9.203125 C 9.332031 -9.648438 8.859375 -10 8.328125 -10.25 C 7.796875 -10.5 7.242188 -10.625 6.671875 -10.625 C 6.003906 -10.625 5.410156 -10.484375 4.890625 -10.203125 C 4.367188 -9.921875 3.929688 -9.550781 3.578125 -9.09375 C 3.222656 -8.632812 2.945312 -8.117188 2.75 -7.546875 C 2.5625 -6.972656 2.46875 -6.398438 2.46875 -5.828125 C 2.46875 -5.191406 2.578125 -4.59375 2.796875 -4.03125 C 3.023438 -3.46875 3.335938 -2.960938 3.734375 -2.515625 C 4.140625 -2.078125 4.609375 -1.734375 5.140625 -1.484375 C 5.671875 -1.242188 6.238281 -1.125 6.84375 -1.125 Z M 6.84375 -1.125 "/></g></g></g><g fill="#ff6e61" fill-opacity="1"><g transform="translate(301.742096, 217.683545)"><g><path d="M 11.59375 0 L 10.046875 0 L 10.046875 -6.578125 C 10.046875 -7.960938 9.84375 -8.972656 9.4375 -9.609375 C 9.03125 -10.253906 8.394531 -10.578125 7.53125 -10.578125 C 6.925781 -10.578125 6.328125 -10.425781 5.734375 -10.125 C 5.148438 -9.832031 4.632812 -9.429688 4.1875 -8.921875 C 3.75 -8.421875 3.429688 -7.847656 3.234375 -7.203125 L 3.234375 0 L 1.6875 0 L 1.6875 -11.765625 L 3.09375 -11.765625 L 3.09375 -9.109375 C 3.40625 -9.679688 3.816406 -10.179688 4.328125 -10.609375 C 4.847656 -11.035156 5.429688 -11.367188 6.078125 -11.609375 C 6.722656 -11.847656 7.394531 -11.96875 8.09375 -11.96875 C 8.738281 -11.96875 9.285156 -11.847656 9.734375 -11.609375 C 10.191406 -11.367188 10.554688 -11.023438 10.828125 -10.578125 C 11.097656 -10.140625 11.289062 -9.609375 11.40625 -8.984375 C 11.53125 -8.359375 11.59375 -7.660156 11.59375 -6.890625 Z M 11.59375 0 "/></g></g></g></svg>